<?xml version="1.0" encoding="UTF-8" standalone="no"?>
<!-- Created with Inkscape (http://www.inkscape.org/) -->
<svg xmlns:inkscape="http://www.inkscape.org/namespaces/inkscape" xmlns:rdf="http://www.w3.org/1999/02/22-rdf-syntax-ns#" xmlns="http://www.w3.org/2000/svg" xmlns:xlink="http://www.w3.org/1999/xlink" xmlns:ns1="http://sozi.baierouge.fr" xmlns:cc="http://creativecommons.org/ns#" xmlns:sodipodi="http://sodipodi.sourceforge.net/DTD/sodipodi-0.dtd" xmlns:dc="http://purl.org/dc/elements/1.1/" id="svg3196" height="32px" width="32px" viewBox="0 0 1401 454.34" version="1.1" inkscape:version="0.91 r13725">
    <title id="title3211">Simple key</title>
    <g id="layer1" transform="translate(351.92 -339.48)">
        <path id="path4680" style="block-progression:tb;text-indent:0;color:#000000;text-transform:none;fill:#000000" d="m-168.33 339.48c-54.067 0-101.37 28.702-133.25 70.219-31.876 41.517-50.337 96.609-50.337 156.94 0 60.329 18.461 115.42 50.337 156.94 31.877 41.517 79.184 70.25 133.25 70.25 54.067 0 101.34-28.733 133.22-70.25 25.218-32.845 42.053-74.197 47.988-119.91h793.71v70.844h-58.951v119.31h36.649v-46.062h34.519v46.062h23.963v-71.906h39.342v71.906h26.844v-58.5h36.461v58.5h35.49v-26.938h34.519v26.938h33.642v-119.31h-58.982v-70.844h58.982v-74.063h-1036.2c-5.8382-45.71-22.672-87.06-47.892-119.91-31.877-41.51-79.148-70.21-133.22-70.21zm0 54.719c30.66 0 60.08 16.013 83.728 46.812 23.648 30.8 39.499 75.602 39.499 125.62 0 50.022-15.851 94.825-39.499 125.62-23.648 30.8-53.068 46.812-83.728 46.812s-60.08-16.013-83.728-46.812c-23.648-30.8-39.499-75.602-39.499-125.62 0-50.023 15.851-94.825 39.499-125.62 23.648-30.8 53.068-46.813 83.728-46.812z"/>
    </g>
    <metadata>
        <rdf:RDF>
            <cc:Work>
                <dc:format>image/svg+xml</dc:format>
                <dc:type rdf:resource="http://purl.org/dc/dcmitype/StillImage"/>
                <cc:license rdf:resource="http://creativecommons.org/licenses/publicdomain/"/>
                <dc:publisher>
                    <cc:Agent rdf:about="http://openclipart.org/">
                        <dc:title>Openclipart</dc:title>
                    </cc:Agent>
                </dc:publisher>
            </cc:Work>
            <cc:License rdf:about="http://creativecommons.org/licenses/publicdomain/">
                <cc:permits rdf:resource="http://creativecommons.org/ns#Reproduction"/>
                <cc:permits rdf:resource="http://creativecommons.org/ns#Distribution"/>
                <cc:permits rdf:resource="http://creativecommons.org/ns#DerivativeWorks"/>
            </cc:License>
        </rdf:RDF>
    </metadata>
</svg>
